<svg width="25" height="25" viewBox="0 0 25 25" fill="none" xmlns="http://www.w3.org/2000/svg">
<path d="M23.8672 12.2148L20.8172 11.0848C20.5572 9.93484 19.9072 9.27484 19.9072 9.27484C18.2672 7.63484 15.6172 7.63484 13.9772 9.27484L12.4972 10.7548L5.86719 3.71484C4.86719 7.71484 5.86719 11.7148 8.31719 14.9348L2.86719 20.2148C2.86719 20.2148 11.7572 22.2148 16.9372 18.1648C19.6972 16.0048 20.3172 14.7448 20.7072 13.4148L23.8672 12.2148ZM18.5772 12.4348C18.1872 12.8248 17.5472 12.8248 17.1572 12.4348C16.7672 12.0448 16.7672 11.4148 17.1572 11.0248C17.5472 10.6348 18.1872 10.6348 18.5772 11.0248C18.9672 11.4148 18.9672 12.0448 18.5772 12.4348Z" fill="white"/>
</svg>
